<svg width="98" height="71" viewBox="0 0 98 71" fill="none" xmlns="http://www.w3.org/2000/svg">
<path fill-rule="evenodd" clip-rule="evenodd" d="M27 8C27 3.58172 30.5817 0 35 0C39.4183 0 43 3.58172 43 8C43 12.4183 39.4183 16 35 16C33.5718 16 32.2309 15.6257 31.0702 14.9699L13.3606 33.0731C13.7711 33.9636 14 34.9551 14 36C14 37.0449 13.7711 38.0364 13.3606 38.9269L30.4634 56.4098C31.7526 55.5206 33.3155 55 35 55C35.4782 55 35.9466 55.042 36.4018 55.1224L58.5108 13.8197C56.9649 12.3611 56 10.2932 56 8C56 3.58172 59.5817 0 64 0C68.4183 0 72 3.58172 72 8C72 9.5656 71.5503 11.0262 70.773 12.2595L87.8703 29.7369C88.8121 29.2654 89.8751 29 91 29C94.866 29 98 32.134 98 36C98 39.866 94.866 43 91 43C89.8751 43 88.8121 42.7346 87.8703 42.2631L71.1325 59.373C71.6872 60.4617 72 61.6943 72 63C72 67.4183 68.4183 71 64 71C59.5817 71 56 67.4183 56 63C56 58.5817 59.5817 55 64 55C65.2897 55 66.5081 55.3052 67.5869 55.8472L84.4873 38.5713C84.1728 37.7753 84 36.9078 84 36C84 35.0922 84.1728 34.2247 84.4873 33.4287L66.9054 15.4561C66.0048 15.8073 65.0249 16 64 16C63.6769 16 63.3583 15.9808 63.0452 15.9436L40.8037 57.4938C42.1649 58.9281 43 60.8665 43 63C43 67.4183 39.4183 71 35 71C30.5817 71 27 67.4183 27 63C27 62.1067 27.1464 61.2475 27.4166 60.4453L9.78648 42.4234C8.9326 42.7944 7.99031 43 7 43C3.13401 43 0 39.866 0 36C0 32.134 3.13401 29 7 29C7.99031 29 8.9326 29.2056 9.78647 29.5766L27.6962 11.2689C27.2488 10.2709 27 9.1645 27 8ZM35 4C32.7909 4 31 5.79086 31 8C31 10.2091 32.7909 12 35 12C37.2091 12 39 10.2091 39 8C39 5.79086 37.2091 4 35 4ZM64 4C66.2091 4 68 5.79086 68 8C68 10.2091 66.2091 12 64 12C61.7909 12 60 10.2091 60 8C60 5.79086 61.7909 4 64 4ZM31 63C31 60.7909 32.7909 59 35 59C37.2091 59 39 60.7909 39 63C39 65.2091 37.2091 67 35 67C32.7909 67 31 65.2091 31 63ZM64 59C66.2091 59 68 60.7909 68 63C68 65.2091 66.2091 67 64 67C61.7909 67 60 65.2091 60 63C60 60.7909 61.7909 59 64 59Z" fill="black"/>
</svg>
