<svg width="150" height="70" viewBox="0 0 415 71" fill="none" xmlns="http://www.w3.org/2000/svg">
<path d="M108.22 57H136.698V50.504H115.354V16.4H108.22V57Z" fill="white"/>
<path d="M173.724 41.688C173.724 39.484 173.318 37.4154 172.506 35.482C171.694 33.5487 170.553 31.8667 169.084 30.436C167.653 28.9667 165.932 27.826 163.922 27.014C161.95 26.1634 159.784 25.738 157.426 25.738C155.067 25.738 152.882 26.1634 150.872 27.014C148.9 27.8647 147.179 29.0247 145.71 30.494C144.279 31.9247 143.138 33.626 142.288 35.598C141.476 37.5314 141.07 39.6 141.07 41.804C141.07 44.008 141.476 46.0767 142.288 48.01C143.1 49.9047 144.221 51.5867 145.652 53.056C147.121 54.4867 148.842 55.6274 150.814 56.478C152.824 57.29 154.99 57.696 157.31 57.696C159.668 57.696 161.853 57.2707 163.864 56.42C165.874 55.5694 167.595 54.4287 169.026 52.998C170.495 51.5287 171.636 49.8274 172.448 47.894C173.298 45.9607 173.724 43.892 173.724 41.688ZM166.706 41.804C166.706 43.1574 166.493 44.4334 166.068 45.632C165.642 46.792 165.024 47.8167 164.212 48.706C163.4 49.5954 162.414 50.3107 161.254 50.852C160.132 51.3547 158.856 51.606 157.426 51.606C156.072 51.606 154.816 51.3547 153.656 50.852C152.534 50.3107 151.548 49.5954 150.698 48.706C149.886 47.8167 149.248 46.7727 148.784 45.574C148.32 44.3367 148.088 43.0414 148.088 41.688C148.088 40.3347 148.3 39.078 148.726 37.918C149.151 36.7194 149.77 35.6754 150.582 34.786C151.394 33.8967 152.36 33.2007 153.482 32.698C154.642 32.1567 155.918 31.886 157.31 31.886C158.702 31.886 159.958 32.1567 161.08 32.698C162.24 33.2007 163.226 33.916 164.038 34.844C164.888 35.7334 165.546 36.7774 166.01 37.976C166.474 39.1747 166.706 40.4507 166.706 41.804Z" fill="white"/>
<path d="M202.737 47.952V47.836C202.737 46.444 202.447 45.2647 201.867 44.298C201.287 43.3314 200.533 42.5194 199.605 41.862C198.716 41.166 197.71 40.586 196.589 40.122C195.468 39.658 194.346 39.252 193.225 38.904C192.336 38.6334 191.466 38.3627 190.615 38.092C189.803 37.7827 189.068 37.4734 188.411 37.164C187.792 36.816 187.29 36.4487 186.903 36.062C186.516 35.6367 186.323 35.1534 186.323 34.612V34.496C186.323 33.6067 186.69 32.872 187.425 32.292C188.198 31.712 189.262 31.422 190.615 31.422C191.891 31.422 193.283 31.6927 194.791 32.234C196.299 32.7367 197.788 33.4327 199.257 34.322L202.041 29.334C200.417 28.2514 198.619 27.4007 196.647 26.782C194.675 26.1634 192.722 25.854 190.789 25.854C189.281 25.854 187.85 26.0667 186.497 26.492C185.182 26.9174 184.022 27.536 183.017 28.348C182.05 29.16 181.277 30.146 180.697 31.306C180.156 32.466 179.885 33.7614 179.885 35.192V35.308C179.885 36.7774 180.175 38.0147 180.755 39.02C181.335 39.9867 182.07 40.818 182.959 41.514C183.887 42.1714 184.912 42.7127 186.033 43.138C187.193 43.5634 188.334 43.95 189.455 44.298C190.344 44.5687 191.195 44.8394 192.007 45.11C192.858 45.342 193.592 45.632 194.211 45.98C194.868 46.2894 195.371 46.6567 195.719 47.082C196.106 47.5074 196.299 48.01 196.299 48.59V48.706C196.299 49.7114 195.874 50.5234 195.023 51.142C194.211 51.722 193.051 52.012 191.543 52.012C189.958 52.012 188.295 51.7027 186.555 51.084C184.854 50.4267 183.172 49.4794 181.509 48.242L178.377 52.998C180.31 54.506 182.398 55.6467 184.641 56.42C186.922 57.1934 189.165 57.58 191.369 57.58C192.954 57.58 194.443 57.3867 195.835 57C197.227 56.5747 198.426 55.9754 199.431 55.202C200.475 54.39 201.287 53.3847 201.867 52.186C202.447 50.9874 202.737 49.576 202.737 47.952Z" fill="white"/>
<path d="M217.772 32.408H226.008V26.376H217.772V17.966H210.754V26.376H206.868V32.408H210.754V48.532C210.754 50.2334 210.967 51.664 211.392 52.824C211.818 53.9454 212.417 54.854 213.19 55.55C214.002 56.246 214.95 56.7487 216.032 57.058C217.115 57.3674 218.294 57.522 219.57 57.522C220.885 57.522 222.045 57.3867 223.05 57.116C224.056 56.8454 225.003 56.4587 225.892 55.956V50.214C224.5 50.91 223.05 51.258 221.542 51.258C220.344 51.258 219.416 50.968 218.758 50.388C218.101 49.7694 217.772 48.7834 217.772 47.43V32.408Z" fill="white"/>
<path d="M234.312 16.4V57H241.446V16.4H234.312Z" fill="white"/>
<path d="M258.52 39.716C258.52 37.3187 259.158 35.4627 260.434 34.148C261.71 32.7947 263.372 32.118 265.422 32.118C267.51 32.118 269.114 32.7754 270.236 34.09C271.396 35.366 271.976 37.2027 271.976 39.6V57H278.994V37.512C278.994 33.916 278.046 31.0547 276.152 28.928C274.257 26.8014 271.57 25.738 268.09 25.738C266.891 25.738 265.808 25.8927 264.842 26.202C263.914 26.4727 263.044 26.8594 262.232 27.362C261.458 27.8647 260.762 28.4447 260.144 29.102C259.564 29.7207 259.022 30.3974 258.52 31.132V26.376H251.502V57H258.52V39.716Z" fill="white"/>
<path d="M305.449 23.012H318.325V16.4H285.381V23.012H298.257V57H305.449V23.012Z" fill="white"/>
<path d="M323.787 44.182H346.291C346.33 43.834 346.349 43.5054 346.349 43.196C346.388 42.8867 346.407 42.5774 346.407 42.268C346.407 40.064 346.098 37.9567 345.479 35.946C344.86 33.9354 343.932 32.176 342.695 30.668C341.496 29.16 339.969 27.9614 338.113 27.072C336.296 26.1827 334.169 25.738 331.733 25.738C329.529 25.738 327.518 26.1634 325.701 27.014C323.884 27.8647 322.298 29.0247 320.945 30.494C319.63 31.9247 318.606 33.6067 317.871 35.54C317.136 37.4734 316.769 39.542 316.769 41.746C316.769 44.1434 317.175 46.328 317.987 48.3C318.799 50.2334 319.901 51.896 321.293 53.288C322.724 54.68 324.386 55.7627 326.281 56.536C328.214 57.3094 330.283 57.696 332.487 57.696C335.31 57.696 337.726 57.174 339.737 56.13C341.786 55.086 343.546 53.694 345.015 51.954L340.897 48.3C339.66 49.4987 338.403 50.4074 337.127 51.026C335.851 51.6447 334.343 51.954 332.603 51.954C330.322 51.954 328.388 51.2967 326.803 49.982C325.218 48.6287 324.212 46.6954 323.787 44.182ZM323.729 39.542C324.038 37.1447 324.889 35.2114 326.281 33.742C327.712 32.234 329.51 31.48 331.675 31.48C332.835 31.48 333.86 31.6927 334.749 32.118C335.677 32.5434 336.47 33.1234 337.127 33.858C337.784 34.554 338.306 35.4047 338.693 36.41C339.08 37.3767 339.331 38.4207 339.447 39.542H323.729Z" fill="white"/>
<path d="M380.135 51.954L375.901 47.778C374.78 48.8994 373.581 49.8274 372.305 50.562C371.068 51.258 369.617 51.606 367.955 51.606C366.602 51.606 365.364 51.3547 364.243 50.852C363.122 50.3107 362.155 49.5954 361.343 48.706C360.531 47.8167 359.893 46.7727 359.429 45.574C359.003 44.3754 358.791 43.08 358.791 41.688C358.791 40.3347 359.003 39.078 359.429 37.918C359.893 36.7194 360.512 35.6754 361.285 34.786C362.058 33.8967 362.986 33.2007 364.069 32.698C365.152 32.1567 366.331 31.886 367.607 31.886C369.385 31.886 370.874 32.2534 372.073 32.988C373.31 33.684 374.47 34.5927 375.553 35.714L379.903 31.016C378.472 29.4307 376.79 28.1547 374.857 27.188C372.962 26.2214 370.565 25.738 367.665 25.738C365.384 25.738 363.257 26.1634 361.285 27.014C359.352 27.8647 357.669 29.0247 356.239 30.494C354.847 31.9634 353.745 33.6647 352.933 35.598C352.16 37.5314 351.773 39.6 351.773 41.804C351.773 44.008 352.16 46.0767 352.933 48.01C353.745 49.9047 354.847 51.5867 356.239 53.056C357.669 54.4867 359.352 55.6274 361.285 56.478C363.218 57.29 365.326 57.696 367.607 57.696C370.584 57.696 373.04 57.174 374.973 56.13C376.906 55.0474 378.627 53.6554 380.135 51.954Z" fill="white"/>
<path d="M393.608 39.716C393.608 37.3187 394.246 35.4627 395.522 34.148C396.798 32.7947 398.46 32.118 400.51 32.118C402.598 32.118 404.202 32.7754 405.324 34.09C406.484 35.366 407.064 37.2027 407.064 39.6V57H414.082V37.512C414.082 33.916 413.134 31.0547 411.24 28.928C409.345 26.8014 406.658 25.738 403.178 25.738C401.979 25.738 400.896 25.8927 399.93 26.202C399.002 26.4727 398.132 26.8594 397.32 27.362C396.546 27.8647 395.85 28.4447 395.232 29.102C394.652 29.7207 394.11 30.3974 393.608 31.132V14.66H386.59V57H393.608V39.716Z" fill="white"/>
<path fill-rule="evenodd" clip-rule="evenodd" d="M27 8C27 3.58172 30.5817 0 35 0C39.4183 0 43 3.58172 43 8C43 12.4183 39.4183 16 35 16C33.5718 16 32.2309 15.6257 31.0702 14.9699L13.3606 33.0731C13.7711 33.9636 14 34.9551 14 36C14 37.0449 13.7711 38.0364 13.3606 38.9269L30.4634 56.4098C31.7526 55.5206 33.3155 55 35 55C35.4782 55 35.9466 55.042 36.4018 55.1224L58.5108 13.8197C56.9649 12.3611 56 10.2932 56 8C56 3.58172 59.5817 0 64 0C68.4183 0 72 3.58172 72 8C72 9.5656 71.5503 11.0262 70.773 12.2595L87.8703 29.7369C88.8121 29.2654 89.8751 29 91 29C94.866 29 98 32.134 98 36C98 39.866 94.866 43 91 43C89.8751 43 88.8121 42.7346 87.8703 42.2631L71.1325 59.373C71.6872 60.4617 72 61.6943 72 63C72 67.4183 68.4183 71 64 71C59.5817 71 56 67.4183 56 63C56 58.5817 59.5817 55 64 55C65.2897 55 66.5081 55.3052 67.5869 55.8472L84.4873 38.5713C84.1728 37.7753 84 36.9078 84 36C84 35.0922 84.1728 34.2247 84.4873 33.4287L66.9054 15.4561C66.0048 15.8073 65.0249 16 64 16C63.6769 16 63.3583 15.9808 63.0452 15.9436L40.8037 57.4938C42.1649 58.9281 43 60.8665 43 63C43 67.4183 39.4183 71 35 71C30.5817 71 27 67.4183 27 63C27 62.1067 27.1464 61.2475 27.4166 60.4453L9.78648 42.4234C8.9326 42.7944 7.99031 43 7 43C3.13401 43 0 39.866 0 36C0 32.134 3.13401 29 7 29C7.99031 29 8.9326 29.2056 9.78647 29.5766L27.6962 11.2689C27.2488 10.2709 27 9.1645 27 8ZM35 4C32.7909 4 31 5.79086 31 8C31 10.2091 32.7909 12 35 12C37.2091 12 39 10.2091 39 8C39 5.79086 37.2091 4 35 4ZM64 4C66.2091 4 68 5.79086 68 8C68 10.2091 66.2091 12 64 12C61.7909 12 60 10.2091 60 8C60 5.79086 61.7909 4 64 4ZM31 63C31 60.7909 32.7909 59 35 59C37.2091 59 39 60.7909 39 63C39 65.2091 37.2091 67 35 67C32.7909 67 31 65.2091 31 63ZM64 59C66.2091 59 68 60.7909 68 63C68 65.2091 66.2091 67 64 67C61.7909 67 60 65.2091 60 63C60 60.7909 61.7909 59 64 59Z" fill="white"/>
</svg>
