<svg width="400" height="290" viewBox="0 0 400 290" fill="none" xmlns="http://www.w3.org/2000/svg">
<path fill-rule="evenodd" clip-rule="evenodd" d="M110.204 32.6531C110.204 14.6193 124.823 0 142.857 0C160.891 0 175.51 14.6193 175.51 32.6531C175.51 50.6868 160.891 65.3061 142.857 65.3061C137.028 65.3061 131.555 63.7785 126.817 61.1016L54.533 134.992C56.2084 138.627 57.1429 142.674 57.1429 146.939C57.1429 151.204 56.2084 155.25 54.533 158.885L124.34 230.244C129.602 226.615 135.982 224.49 142.857 224.49C144.809 224.49 146.721 224.661 148.579 224.989L238.82 56.4071C232.51 50.4534 228.571 42.0132 228.571 32.6531C228.571 14.6193 243.191 0 261.224 0C279.258 0 293.878 14.6193 293.878 32.6531C293.878 39.0433 292.042 45.0047 288.869 50.039L358.654 121.375C362.499 119.45 366.837 118.367 371.429 118.367C387.208 118.367 400 131.159 400 146.939C400 162.718 387.208 175.51 371.429 175.51C366.837 175.51 362.499 174.427 358.654 172.503L290.337 242.339C292.601 246.782 293.878 251.814 293.878 257.143C293.878 275.177 279.258 289.796 261.224 289.796C243.191 289.796 228.571 275.177 228.571 257.143C228.571 239.109 243.191 224.49 261.224 224.49C266.488 224.49 271.461 225.735 275.865 227.948L344.846 157.434C343.562 154.185 342.857 150.644 342.857 146.939C342.857 143.233 343.562 139.693 344.846 136.444L273.083 63.0861C269.407 64.5195 265.408 65.3061 261.224 65.3061C259.906 65.3061 258.605 65.228 257.327 65.076L166.546 234.669C172.101 240.523 175.51 248.435 175.51 257.143C175.51 275.177 160.891 289.796 142.857 289.796C124.823 289.796 110.204 275.177 110.204 257.143C110.204 253.497 110.802 249.99 111.904 246.716L39.9448 173.157C36.4596 174.671 32.6135 175.51 28.5714 175.51C12.7919 175.51 0 162.718 0 146.939C0 131.159 12.7919 118.367 28.5714 118.367C32.6135 118.367 36.4596 119.207 39.9448 120.721L113.046 45.9955C111.22 41.922 110.204 37.4061 110.204 32.6531ZM142.857 16.3265C133.84 16.3265 126.531 23.6362 126.531 32.6531C126.531 41.67 133.84 48.9796 142.857 48.9796C151.874 48.9796 159.184 41.67 159.184 32.6531C159.184 23.6362 151.874 16.3265 142.857 16.3265ZM261.224 16.3265C270.241 16.3265 277.551 23.6362 277.551 32.6531C277.551 41.67 270.241 48.9796 261.224 48.9796C252.208 48.9796 244.898 41.67 244.898 32.6531C244.898 23.6362 252.208 16.3265 261.224 16.3265ZM126.531 257.143C126.531 248.126 133.84 240.816 142.857 240.816C151.874 240.816 159.184 248.126 159.184 257.143C159.184 266.16 151.874 273.469 142.857 273.469C133.84 273.469 126.531 266.16 126.531 257.143ZM261.224 240.816C270.241 240.816 277.551 248.126 277.551 257.143C277.551 266.16 270.241 273.469 261.224 273.469C252.208 273.469 244.898 266.16 244.898 257.143C244.898 248.126 252.208 240.816 261.224 240.816Z" fill="white"/>
</svg>
