<svg width="150" height="70" viewBox="0 0 706 121" fill="none" xmlns="http://www.w3.org/2000/svg">
<path d="M184.431 97.1409H232.964V86.0702H196.589V27.9493H184.431V97.1409Z" fill="#8CCEFF"/>
<path d="M296.064 71.0458C296.064 67.2897 295.373 63.7642 293.989 60.4694C292.605 57.1745 290.661 54.308 288.157 51.8698C285.719 49.3658 282.786 47.4218 279.36 46.038C275.999 44.5882 272.309 43.8634 268.289 43.8634C264.269 43.8634 260.546 44.5882 257.119 46.038C253.759 47.4877 250.826 49.4646 248.322 51.9687C245.884 54.4069 243.94 57.3063 242.49 60.667C241.107 63.9619 240.415 67.4874 240.415 71.2435C240.415 74.9996 241.107 78.5251 242.49 81.8199C243.874 85.0488 245.785 87.9153 248.223 90.4194C250.727 92.8576 253.66 94.8015 257.021 96.2513C260.447 97.6351 264.137 98.327 268.091 98.327C272.111 98.327 275.834 97.6021 279.261 96.1524C282.687 94.7027 285.62 92.7588 288.058 90.3206C290.562 87.8165 292.506 84.917 293.89 81.6222C295.34 78.3274 296.064 74.8019 296.064 71.0458ZM284.104 71.2435C284.104 73.5499 283.742 75.7244 283.017 77.7672C282.292 79.7441 281.238 81.4904 279.854 83.006C278.47 84.5217 276.79 85.7407 274.813 86.6633C272.902 87.52 270.727 87.9483 268.289 87.9483C265.983 87.9483 263.841 87.52 261.864 86.6633C259.953 85.7407 258.273 84.5217 256.823 83.006C255.439 81.4904 254.352 79.7112 253.561 77.6684C252.77 75.5597 252.375 73.3522 252.375 71.0458C252.375 68.7394 252.737 66.5978 253.462 64.6208C254.187 62.5781 255.241 60.7988 256.625 59.2832C258.009 57.7676 259.656 56.5814 261.567 55.7248C263.544 54.8022 265.719 54.341 268.091 54.341C270.464 54.341 272.605 54.8022 274.516 55.7248C276.493 56.5814 278.173 57.8005 279.557 59.3821C281.007 60.8977 282.127 62.6769 282.918 64.7197C283.709 66.7625 284.104 68.9371 284.104 71.2435Z" fill="#8CCEFF"/>
<path d="M345.509 81.721V81.5234C345.509 79.1511 345.015 77.1412 344.027 75.4938C343.038 73.8464 341.753 72.4626 340.172 71.3423C338.656 70.1562 336.943 69.1677 335.032 68.377C333.121 67.5862 331.21 66.8943 329.299 66.3012C327.783 65.8399 326.3 65.3787 324.851 64.9174C323.467 64.3902 322.215 63.863 321.095 63.3359C320.04 62.7428 319.184 62.1168 318.525 61.4578C317.866 60.7329 317.536 59.9092 317.536 58.9867V58.789C317.536 57.2734 318.162 56.0213 319.414 55.0329C320.732 54.0444 322.544 53.5502 324.851 53.5502C327.025 53.5502 329.398 54.0115 331.968 54.934C334.538 55.7907 337.075 56.9768 339.579 58.4925L344.323 49.9918C341.556 48.1467 338.491 46.6969 335.131 45.6426C331.77 44.5883 328.442 44.0611 325.147 44.0611C322.577 44.0611 320.139 44.4235 317.833 45.1484C315.592 45.8732 313.615 46.9276 311.902 48.3114C310.255 49.6952 308.937 51.3756 307.948 53.3525C307.026 55.3294 306.564 57.537 306.564 59.9751V60.1728C306.564 62.6769 307.059 64.7856 308.047 66.4989C309.036 68.1463 310.288 69.5631 311.803 70.7492C313.385 71.8695 315.131 72.792 317.042 73.5169C319.019 74.2418 320.963 74.9007 322.874 75.4938C324.389 75.9551 325.839 76.4164 327.223 76.8776C328.673 77.273 329.925 77.7672 330.979 78.3603C332.099 78.8875 332.956 79.5135 333.549 80.2384C334.208 80.9632 334.538 81.8199 334.538 82.8083V83.006C334.538 84.7193 333.813 86.1032 332.363 87.1575C330.979 88.146 329.002 88.6402 326.432 88.6402C323.73 88.6402 320.897 88.113 317.932 87.0587C315.032 85.9384 312.166 84.324 309.332 82.2153L303.994 90.3206C307.289 92.8905 310.848 94.8345 314.67 96.1524C318.558 97.4704 322.38 98.1293 326.136 98.1293C328.837 98.1293 331.375 97.7998 333.747 97.1409C336.119 96.416 338.162 95.3946 339.875 94.0767C341.654 92.6928 343.038 90.9795 344.027 88.9367C345.015 86.8939 345.509 84.4887 345.509 81.721Z" fill="#8CCEFF"/>
<path d="M371.133 55.2306H385.169V44.9507H371.133V30.6181H359.173V44.9507H352.551V55.2306H359.173V82.7095C359.173 85.609 359.536 88.0471 360.26 90.024C360.985 91.935 362.007 93.4836 363.325 94.6697C364.708 95.8559 366.323 96.7125 368.168 97.2397C370.013 97.7669 372.023 98.0305 374.198 98.0305C376.438 98.0305 378.415 97.7999 380.128 97.3386C381.842 96.8773 383.456 96.2183 384.972 95.3617V85.576C382.599 86.7621 380.128 87.3552 377.558 87.3552C375.516 87.3552 373.934 86.861 372.814 85.8725C371.694 84.8182 371.133 83.1378 371.133 80.8314V55.2306Z" fill="#8CCEFF"/>
<path d="M399.32 27.9493V97.1409H411.478V27.9493H399.32Z" fill="#8CCEFF"/>
<path d="M440.576 67.685C440.576 63.5994 441.663 60.4364 443.838 58.1959C446.012 55.8895 448.846 54.7363 452.338 54.7363C455.897 54.7363 458.632 55.8566 460.543 58.0971C462.52 60.2717 463.508 63.4018 463.508 67.4874V97.1409H475.468V63.9289C475.468 57.8005 473.854 52.9242 470.625 49.2999C467.396 45.6755 462.816 43.8634 456.885 43.8634C454.843 43.8634 452.997 44.127 451.35 44.6541C449.768 45.1154 448.286 45.7744 446.902 46.631C445.584 47.4877 444.398 48.4762 443.344 49.5964C442.355 50.6507 441.433 51.8039 440.576 53.056V44.9507H428.616V97.1409H440.576V67.685Z" fill="#8CCEFF"/>
<path d="M520.553 39.2177H542.497V27.9493H486.353V39.2177H508.296V97.1409H520.553V39.2177Z" fill="#8CCEFF"/>
<path d="M551.806 75.2961H590.158C590.224 74.703 590.257 74.1429 590.257 73.6157C590.323 73.0886 590.356 72.5614 590.356 72.0342C590.356 68.2781 589.828 64.6867 588.774 61.2601C587.72 57.8335 586.138 54.8352 584.029 52.2652C581.987 49.6952 579.384 47.6524 576.221 46.1368C573.124 44.6212 569.499 43.8634 565.348 43.8634C561.592 43.8634 558.165 44.5882 555.068 46.038C551.971 47.4877 549.269 49.4646 546.963 51.9687C544.722 54.4069 542.976 57.2734 541.724 60.5682C540.472 63.863 539.846 67.3885 539.846 71.1446C539.846 75.2302 540.538 78.9534 541.921 82.3141C543.305 85.609 545.183 88.4425 547.556 90.8148C549.994 93.1871 552.827 95.0322 556.056 96.3501C559.351 97.6681 562.877 98.327 566.633 98.327C571.443 98.327 575.562 97.4374 578.988 95.6582C582.481 93.879 585.479 91.5067 587.983 88.5414L580.965 82.3141C578.857 84.3569 576.715 85.9055 574.54 86.9598C572.366 88.0142 569.796 88.5414 566.83 88.5414C562.943 88.5414 559.648 87.4211 556.946 85.1806C554.244 82.8742 552.531 79.5794 551.806 75.2961ZM551.707 67.3885C552.234 63.3029 553.684 60.0081 556.056 57.504C558.494 54.934 561.559 53.649 565.249 53.649C567.226 53.649 568.972 54.0115 570.488 54.7363C572.069 55.4612 573.42 56.4497 574.54 57.7017C575.661 58.8878 576.55 60.3376 577.209 62.0509C577.868 63.6983 578.296 65.4775 578.494 67.3885H551.707Z" fill="#8CCEFF"/>
<path d="M647.836 88.5414L640.62 81.4245C638.709 83.3355 636.666 84.917 634.491 86.1691C632.383 87.3552 629.912 87.9483 627.078 87.9483C624.772 87.9483 622.663 87.52 620.752 86.6633C618.841 85.7407 617.193 84.5217 615.81 83.006C614.426 81.4904 613.339 79.7112 612.548 77.6684C611.823 75.6256 611.461 73.4181 611.461 71.0458C611.461 68.7394 611.823 66.5978 612.548 64.6208C613.339 62.5781 614.393 60.7988 615.711 59.2832C617.029 57.7676 618.61 56.5814 620.455 55.7248C622.301 54.8022 624.31 54.341 626.485 54.341C629.516 54.341 632.053 54.967 634.096 56.219C636.205 57.4052 638.182 58.9537 640.027 60.8647L647.44 52.8583C645.002 50.1565 642.135 47.9819 638.841 46.3345C635.612 44.6871 631.526 43.8634 626.584 43.8634C622.696 43.8634 619.072 44.5882 615.711 46.038C612.416 47.4877 609.549 49.4646 607.111 51.9687C604.739 54.4728 602.861 57.3722 601.477 60.667C600.159 63.9619 599.5 67.4874 599.5 71.2435C599.5 74.9996 600.159 78.5251 601.477 81.8199C602.861 85.0488 604.739 87.9153 607.111 90.4194C609.549 92.8576 612.416 94.8015 615.711 96.2513C619.006 97.6351 622.597 98.327 626.485 98.327C631.559 98.327 635.743 97.4374 639.038 95.6582C642.333 93.8131 645.266 91.4408 647.836 88.5414Z" fill="#8CCEFF"/>
<path d="M670.796 67.685C670.796 63.5994 671.883 60.4364 674.058 58.1959C676.233 55.8895 679.066 54.7363 682.559 54.7363C686.117 54.7363 688.852 55.8566 690.763 58.0971C692.74 60.2717 693.728 63.4018 693.728 67.4874V97.1409H705.688V63.9289C705.688 57.8005 704.074 52.9242 700.845 49.2999C697.616 45.6755 693.036 43.8634 687.106 43.8634C685.063 43.8634 683.218 44.127 681.57 44.6541C679.989 45.1154 678.506 45.7744 677.122 46.631C675.804 47.4877 674.618 48.4762 673.564 49.5964C672.575 50.6507 671.653 51.8039 670.796 53.056V24.984H658.836V97.1409H670.796V67.685Z" fill="#8CCEFF"/>
<path fill-rule="evenodd" clip-rule="evenodd" d="M46.0141 13.6338C46.0141 6.10406 52.1181 0 59.6479 0C67.1776 0 73.2817 6.10406 73.2817 13.6338C73.2817 21.1635 67.1776 27.2676 59.6479 27.2676C57.2138 27.2676 54.9288 26.6298 52.9507 25.5121L22.7694 56.364C23.469 57.8817 23.8592 59.5713 23.8592 61.3521C23.8592 63.1329 23.469 64.8225 22.7694 66.3402L51.9165 96.135C54.1135 94.6197 56.7771 93.7324 59.6479 93.7324C60.4629 93.7324 61.2612 93.8039 62.0368 93.941L99.7157 23.552C97.081 21.0661 95.4366 17.542 95.4366 13.6338C95.4366 6.10406 101.541 0 109.07 0C116.6 0 122.704 6.10406 122.704 13.6338C122.704 16.3019 121.938 18.7911 120.613 20.893L149.751 50.6783C151.356 49.8748 153.167 49.4225 155.085 49.4225C161.673 49.4225 167.014 54.7636 167.014 61.3521C167.014 67.9406 161.673 73.2817 155.085 73.2817C153.167 73.2817 151.356 72.8295 149.751 72.0259L121.226 101.185C122.171 103.04 122.704 105.141 122.704 107.366C122.704 114.896 116.6 121 109.07 121C101.541 121 95.4366 114.896 95.4366 107.366C95.4366 99.8365 101.541 93.7324 109.07 93.7324C111.268 93.7324 113.345 94.2525 115.183 95.1763L143.985 65.7341C143.449 64.3776 143.155 62.8992 143.155 61.3521C143.155 59.805 143.449 58.3267 143.985 56.9701L114.022 26.3406C112.487 26.9392 110.817 27.2676 109.07 27.2676C108.52 27.2676 107.977 27.235 107.443 27.1715L69.5386 97.9824C71.8584 100.427 73.2817 103.73 73.2817 107.366C73.2817 114.896 67.1776 121 59.6479 121C52.1181 121 46.0141 114.896 46.0141 107.366C46.0141 105.844 46.2636 104.38 46.724 103.012L16.6784 72.2991C15.2232 72.9312 13.6173 73.2817 11.9296 73.2817C5.34105 73.2817 0 67.9406 0 61.3521C0 54.7636 5.34105 49.4225 11.9296 49.4225C13.6173 49.4225 15.2232 49.773 16.6784 50.4051L47.2005 19.2047C46.4381 17.5039 46.0141 15.6184 46.0141 13.6338ZM59.6479 6.8169C55.883 6.8169 52.831 9.86893 52.831 13.6338C52.831 17.3987 55.883 20.4507 59.6479 20.4507C63.4128 20.4507 66.4648 17.3987 66.4648 13.6338C66.4648 9.86893 63.4128 6.8169 59.6479 6.8169ZM109.07 6.8169C112.835 6.8169 115.887 9.86893 115.887 13.6338C115.887 17.3987 112.835 20.4507 109.07 20.4507C105.306 20.4507 102.254 17.3987 102.254 13.6338C102.254 9.86893 105.306 6.8169 109.07 6.8169ZM52.831 107.366C52.831 103.601 55.883 100.549 59.6479 100.549C63.4128 100.549 66.4648 103.601 66.4648 107.366C66.4648 111.131 63.4128 114.183 59.6479 114.183C55.883 114.183 52.831 111.131 52.831 107.366ZM109.07 100.549C112.835 100.549 115.887 103.601 115.887 107.366C115.887 111.131 112.835 114.183 109.07 114.183C105.306 114.183 102.254 111.131 102.254 107.366C102.254 103.601 105.306 100.549 109.07 100.549Z" fill="#8CCEFF"/>
</svg>
